sfk_cyclingleg_states
version=1
nRows=9
nColumns=53
inDegrees=yes

# SIMM Motion File Header:
name sfk_cyclingleg_states
datacolumns 53
datarows 9
otherdata 1
range 0.24893911 0.24983237
endheader
time	/jointset/bb/crank_angle/value	/jointset/bb/crank_angle/speed	/jointset/spindle/pedal_angle_r/value	/jointset/spindle/pedal_angle_r/speed	/jointset/ground_pelvis/pelvis_tilt/value	/jointset/ground_pelvis/pelvis_tilt/speed	/jointset/ground_pelvis/pelvis_list/value	/jointset/ground_pelvis/pelvis_list/speed	/jointset/ground_pelvis/pelvis_rotation/value	/jointset/ground_pelvis/pelvis_rotation/speed	/jointset/ground_pelvis/pelvis_tx/value	/jointset/ground_pelvis/pelvis_tx/speed	/jointset/ground_pelvis/pelvis_ty/value	/jointset/ground_pelvis/pelvis_ty/speed	/jointset/ground_pelvis/pelvis_tz/value	/jointset/ground_pelvis/pelvis_tz/speed	/jointset/hip_r/hip_angle_r/value	/jointset/hip_r/hip_angle_r/speed	/jointset/hip_r/hip_adduction_r/value	/jointset/hip_r/hip_adduction_r/speed	/jointset/hip_r/hip_rotation_r/value	/jointset/hip_r/hip_rotation_r/speed	/jointset/knee_r/knee_angle_r/value	/jointset/knee_r/knee_angle_r/speed	/jointset/knee_r/tib_tx_r/value	/jointset/knee_r/tib_tx_r/speed	/jointset/knee_r/tib_ty_r/value	/jointset/knee_r/tib_ty_r/speed	/jointset/tib_pat_r/pat_angle_r/value	/jointset/tib_pat_r/pat_angle_r/speed	/jointset/tib_pat_r/pat_tx_r/value	/jointset/tib_pat_r/pat_tx_r/speed	/jointset/tib_pat_r/pat_ty_r/value	/jointset/tib_pat_r/pat_ty_r/speed	/jointset/ankle_r/ankle_angle_r/value	/jointset/ankle_r/ankle_angle_r/speed	/jointset/subtalar_r/subtalar_angle_r/value	/jointset/subtalar_r/subtalar_angle_r/speed	/jointset/mtp_r/mtp_angle_r/value	/jointset/mtp_r/mtp_angle_r/speed	/forceset/bifemlh_r/activation	/forceset/bifemlh_r/fiber_length	/forceset/bifemsh_r/activation	/forceset/bifemsh_r/fiber_length	/forceset/glut_max2_r/activation	/forceset/glut_max2_r/fiber_length	/forceset/vas_int_r/activation	/forceset/vas_int_r/fiber_length	/forceset/med_gas_r/activation	/forceset/med_gas_r/fiber_length	/forceset/tib_ant_r/activation	/forceset/tib_ant_r/fiber_length
      0.24893911	   -129.66016009	   -480.13863232	    152.92505666	    587.71028419	      0.00000000	      0.00000000	     -0.00000000	     -0.00000000	      0.00000000	      0.00000000	     -0.00000000	     -0.00000000	      0.00000000	      0.00000000	     -0.00000000	     -0.00000000	     45.57187826	   -236.75707950	      4.36019829	     -0.92698254	      2.02312090	     28.79984254	    -45.70961355	    287.76607782	      0.00330053	     -0.03897544	     -0.47190015	      0.07482134	     16.85693164	    -16.82284965	      0.04683771	      0.07659119	     -0.02347013	     -0.01169759	     23.80883182	     56.56554399	     -0.00000000	     -0.00000000	      0.00000000	     -0.00000000	     -0.00660879	      0.13238619	     -0.00660879	      0.17435355	     -0.00660879	      0.13522141	     -0.00660879	      0.11857498	     -0.00660879	      0.15094626	     -0.00660879	      0.11512441
      0.24905069	   -129.71373556	   -480.13863232	    152.99063751	    587.74952757	      0.00000000	      0.00000000	     -0.00000000	     -0.00000000	      0.00000000	      0.00000000	     -0.00000000	     -0.00000000	      0.00000000	      0.00000000	     -0.00000000	     -0.00000000	     45.54546089	   -236.74321584	      4.36009476	     -0.92856820	      2.02633516	     28.81212774	    -45.67750780	    287.69171254	      0.00329618	     -0.03899198	     -0.47189180	      0.07476692	     16.85505300	    -16.84956087	      0.04684626	      0.07655070	     -0.02347143	     -0.01169890	     23.81514924	     56.66678786	     -0.00000000	     -0.00000000	      0.00000000	     -0.00000000	     -0.00662316	      0.13237769	     -0.00662316	      0.17437229	     -0.00662316	      0.13520232	     -0.00662316	      0.11854859	     -0.00662316	      0.15095744	     -0.00662316	      0.11511903
      0.24916264	   -129.76748981	   -480.13863232	    153.05644162	    587.78894159	      0.00000000	      0.00000000	     -0.00000000	     -0.00000000	      0.00000000	      0.00000000	     -0.00000000	     -0.00000000	      0.00000000	      0.00000000	     -0.00000000	     -0.00000000	     45.51895693	   -236.72915872	      4.35999071	     -0.93015550	      2.02956154	     28.82446927	    -45.64530326	    287.61689468	      0.00329182	     -0.03900844	     -0.47188344	      0.07471226	     16.85316510	    -16.87635427	      0.04685483	      0.07651003	     -0.02347274	     -0.01170022	     23.82149910	     56.76846759	     -0.00000000	     -0.00000000	      0.00000000	     -0.00000000	     -0.00663757	      0.13236917	     -0.00663757	      0.17439109	     -0.00663757	      0.13518316	     -0.00663757	      0.11852211	     -0.00663757	      0.15096847	     -0.00663757	      0.11511361
      0.24927416	   -129.82103095	   -480.13863232	    153.12198924	    587.82823867	      0.00000000	      0.00000000	     -0.00000000	     -0.00000000	      0.00000000	      0.00000000	     -0.00000000	     -0.00000000	      0.00000000	      0.00000000	     -0.00000000	     -0.00000000	     45.49255961	   -236.71501046	      4.35988690	     -0.93173286	      2.03277649	     28.83677712	    -45.61323473	    287.54216934	      0.00328746	     -0.03902472	     -0.47187511	      0.07465777	     16.85128170	    -16.90303438	      0.04686336	      0.07646948	     -0.02347405	     -0.01170152	     23.82783511	     56.86984186	     -0.00000000	     -0.00000000	      0.00000000	     -0.00000000	     -0.00665193	      0.13236067	     -0.00665193	      0.17440982	     -0.00665193	      0.13516408	     -0.00665193	      0.11849574	     -0.00665193	      0.15097963	     -0.00665193	      0.11510821
      0.24938603	   -129.87474819	   -480.13863232	    153.18775685	    587.86770421	      0.00000000	      0.00000000	     -0.00000000	     -0.00000000	      0.00000000	      0.00000000	     -0.00000000	     -0.00000000	      0.00000000	      0.00000000	     -0.00000000	     -0.00000000	     45.46607707	   -236.70066808	      4.35978257	     -0.93331173	      2.03600340	     28.84914072	    -45.58106912	    287.46699296	      0.00328310	     -0.03904092	     -0.47186676	      0.07460305	     16.84938911	    -16.92979498	      0.04687191	      0.07642875	     -0.02347536	     -0.01170283	     23.83420332	     56.97164755	     -0.00000000	     -0.00000000	      0.00000000	     -0.00000000	     -0.00666633	      0.13235215	     -0.00666633	      0.17442860	     -0.00666633	      0.13514493	     -0.00666633	      0.11846928	     -0.00666633	      0.15099065	     -0.00666633	      0.11510277
      0.24949748	   -129.92825509	   -480.13863232	    153.25327133	    587.90705408	      0.00000000	      0.00000000	     -0.00000000	      0.00000000	      0.00000000	      0.00000000	     -0.00000000	     -0.00000000	      0.00000000	      0.00000000	     -0.00000000	     -0.00000000	     45.43969982	   -236.68623458	      4.35967848	     -0.93488074	      2.03921905	     28.86147109	    -45.54903783	    287.39190597	      0.00327875	     -0.03905693	     -0.47185845	      0.07454850	     16.84750096	    -16.95644341	      0.04688042	      0.07638814	     -0.02347666	     -0.01170413	     23.84055793	     57.07315225	     -0.00000000	     -0.00000000	      0.00000000	     -0.00000000	     -0.00668068	      0.13234365	     -0.00668068	      0.17444730	     -0.00668068	      0.13512585	     -0.00668068	      0.11844293	     -0.00668068	      0.15100179	     -0.00668068	      0.11509735
      0.24960928	   -129.98193548	   -480.13863232	    153.31900263	    587.94657028	      0.00000000	      0.00000000	     -0.00000000	      0.00000000	      0.00000000	      0.00000000	     -0.00000000	     -0.00000000	      0.00000000	      0.00000000	     -0.00000000	     -0.00000000	     45.41323868	   -236.67160629	      4.35957387	     -0.93645113	      2.04244651	     28.87385666	    -45.51691110	    287.31636938	      0.00327438	     -0.03907286	     -0.47185012	      0.07449372	     16.84560370	    -16.98317067	      0.04688896	      0.07634735	     -0.02347797	     -0.01170543	     23.84694451	     57.17508406	     -0.00000000	     -0.00000000	      0.00000000	     -0.00000000	     -0.00669508	      0.13233513	     -0.00669508	      0.17446605	     -0.00669508	      0.13510670	     -0.00669508	      0.11841649	     -0.00669508	      0.15101280	     -0.00669508	      0.11509191
      0.24972065	   -130.03540821	   -480.13863232	    153.38448406	    587.98597199	      0.00000000	      0.00000000	     -0.00000000	      0.00000000	      0.00000000	      0.00000000	     -0.00000000	     -0.00000000	      0.00000000	      0.00000000	     -0.00000000	     -0.00000000	     45.38688154	   -236.65688690	      4.35946949	     -0.93801174	      2.04566286	     28.88620944	    -45.48491706	    287.24091914	      0.00327003	     -0.03908861	     -0.47184182	      0.07443909	     16.84371082	    -17.00978683	      0.04689746	      0.07630668	     -0.02347927	     -0.01170672	     23.85331772	     57.27671921	     -0.00000000	     -0.00000000	      0.00000000	     -0.00000000	     -0.00670942	      0.13232663	     -0.00670942	      0.17448473	     -0.00670942	      0.13508762	     -0.00670942	      0.11839016	     -0.00670942	      0.15102392	     -0.00670942	      0.11508647
      0.24983237	   -130.08905191	   -480.13863232	    153.45017926	    588.02553796	      0.00000000	      0.00000000	     -0.00000000	      0.00000000	      0.00000000	      0.00000000	     -0.00000000	     -0.00000000	      0.00000000	      0.00000000	     -0.00000000	     -0.00000000	     45.36044177	   -236.64197204	      4.35936460	     -0.93957360	      2.04889088	     28.89861687	    -45.45282919	    287.16502063	      0.00326566	     -0.03910428	     -0.47183351	      0.07438425	     16.84180890	    -17.03648020	      0.04690599	      0.07626583	     -0.02348058	     -0.01170801	     23.85972268	     57.37877731	     -0.00000000	     -0.00000000	      0.00000000	     -0.00000000	     -0.00672380	      0.13231810	     -0.00672380	      0.17450346	     -0.00672380	      0.13506848	     -0.00672380	      0.11836375	     -0.00672380	      0.15103491	     -0.00672380	      0.11508100
